# xmcd CD database file
#
# Track frame offsets:
#	150
#	19713
#	33483
#	53732
#	70781
#	83179
#	97537
#	116422
#	135446
#	153254
#	171595
#	186313
#
# Disc length: 2729 seconds
#
# Revision: 0
# Processed by: cddbd v1.4PL0 Copyright (c) Steve Scherf et al.
# Submitted via: CDex 1.51
#
DISCID=900aa70c
DTITLE=Malafe - BACK'N TOWN
DYEAR=2003
DGENRE=Merengue
TTITLE0=02-mala_fe-jilila_kimbolo-esc
TTITLE1=04-mala_fe-dale_pa_abajo-esc
TTITLE2=09-mala_fe-como_maco-esc
TTITLE3=10-mala_fe-el_maco_bocon-esc
TTITLE4=12-mala_fe-las_gatas-esc
TTITLE5=08-mala_fe-la_patita-esc
TTITLE6=05-mala_fe-me_robaron_la_vaca-esc
TTITLE7=11-mala_fe-pa_el_camion-esc
TTITLE8=06-mala_fe-para_toda_mi_gente-esc
TTITLE9=03-mala_fe-un_ladron-esc
TTITLE10=07-mala_fe-el_ser_que_me_persigue_(ft_querubin)-esc
TTITLE11=01-mala_fe-party_in_miami_(ft_julio_acosta)-esc
EXTD=YEAR: 2003
EXTT0=
EXTT1=
EXTT2=
EXTT3=
EXTT4=
EXTT5=
EXTT6=
EXTT7=
EXTT8=
EXTT9=
EXTT10=
EXTT11=
PLAYORDER=
